<?xml version="1.0" standalone="no"?><svg xmlns="http://www.w3.org/2000/svg" viewBox="0 0 1440 320"><path fill="#ffffff" fill-opacity="1" d="M0,160L34.3,176C68.6,192,137,224,206,218.7C274.3,213,343,171,411,176C480,181,549,235,617,245.3C685.7,256,754,224,823,186.7C891.4,149,960,107,1029,122.7C1097.1,139,1166,213,1234,229.3C1302.9,245,1371,203,1406,181.3L1440,160L1440,320L1405.7,320C1371.4,320,1303,320,1234,320C1165.7,320,1097,320,1029,320C960,320,891,320,823,320C754.3,320,686,320,617,320C548.6,320,480,320,411,320C342.9,320,274,320,206,320C137.1,320,69,320,34,320L0,320Z"></path></svg>